<svg width="45" height="45" viewBox="0 0 45 45" fill="none" xmlns="http://www.w3.org/2000/svg">
<path d="M22.2945 0C22.9961 2.25124 23.6977 4.50248 24.3994 6.75371C25.3111 9.69721 26.2679 12.6266 27.0924 15.5926C27.4273 16.7914 28.1083 17.1291 29.2283 17.1235C33.6323 17.1066 38.0362 17.1235 42.4402 17.1235H43.9289C43.9711 17.2388 44.0133 17.357 44.0527 17.4724C43.186 18.1196 42.3305 18.7838 41.4497 19.4141C38.2923 21.6653 35.1378 23.9391 31.9551 26.1678C30.9786 26.8488 30.6916 27.5383 31.0912 28.7652C32.7261 33.777 34.2373 38.831 35.7878 43.8738C35.8116 44.1115 35.8116 44.3509 35.7878 44.5886C35.2588 44.2171 34.862 43.9723 34.5046 43.6825C30.7704 40.6377 27.0164 37.6154 23.33 34.5115C22.3789 33.7095 21.7176 33.7517 20.7974 34.5115C16.9337 37.6069 13.0194 40.663 9.11628 43.7219C8.68681 44.0835 8.16937 44.3252 7.61639 44.4225C7.84715 43.5783 8.05257 42.7032 8.31709 41.8561C9.72412 37.3086 11.1987 32.7808 12.5241 28.2108C12.6676 27.7099 12.1977 26.7757 11.7277 26.3901C8.32553 23.6042 4.85018 20.9112 1.40298 18.1844C1.08499 17.9367 0.781072 17.6722 0.237961 17.2192C0.888006 17.1601 1.23413 17.101 1.58308 17.101C6.03208 17.101 10.4839 17.101 14.9329 17.1376C16.1373 17.1376 16.7817 16.7436 17.1391 15.5167C18.5855 10.5414 20.1361 5.59997 21.6416 0.647245C21.718 0.437879 21.8063 0.233042 21.9061 0.0337672L22.2945 0ZM21.7711 27.8957C23.5495 27.8957 25.3308 27.8957 27.1177 27.8957C28.097 27.8957 28.5923 27.4904 27.9929 26.4886C26.1891 23.486 24.3881 20.4778 22.5421 17.5006C21.8583 16.4003 21.2617 16.4284 20.6004 17.5597C18.912 20.4656 17.2386 23.3838 15.5801 26.3142C14.916 27.4932 15.158 27.8647 16.5791 27.8872C18.3041 27.9153 20.0376 27.8957 21.7711 27.8957Z" fill="#1361A2"/>
</svg>
