<svg width="450" height="86" viewBox="0 0 450 86" fill="none" xmlns="http://www.w3.org/2000/svg">
<g clip-path="url(#clip0_70_196)">
<path d="M7.06083 45.1269C7.06083 36.1183 7.10642 27.1149 7.06083 18.1063C7.02537 13.6379 6.04776 12.4825 1.65109 11.6337C-0.278782 11.2605 -0.0660411 9.89032 0.161897 8.75531C0.303725 8.05488 1.27121 6.9914 1.86891 6.9914C13.7521 6.95561 25.6757 6.72045 37.5234 7.26239C44.0222 7.55892 49.4775 10.8413 51.4581 17.6207C53.4842 24.5483 52.6079 31.2255 47.2133 36.4762C44.8934 38.7411 41.9049 40.3056 39.2355 42.2075C38.6581 42.6165 38.1414 43.1227 37.5994 43.5828C38.2326 44.043 38.7999 44.7076 39.509 44.9377C45.0809 46.7476 50.2221 49.3039 53.1499 54.7284C58.6811 64.9537 55.6825 81.9278 37.3563 82.8481C25.6656 83.4156 13.9243 83.0322 2.20321 83.0833C0.987538 83.0833 -0.000188665 82.9094 0.0707253 81.3194C0.131509 79.9799 -0.162274 78.6608 1.87904 78.3387C5.85022 77.7099 7.0355 76.263 7.06083 72.1678C7.11655 63.1439 7.06589 54.1149 7.06083 45.1269ZM22.0034 60.2603H22.2567C22.2567 64.2431 22.2567 68.2259 22.2567 72.2086C22.2567 73.0522 22.2567 74.0185 22.6467 74.6985C23.3457 75.9307 24.1663 77.715 25.2351 78.0013C30.1028 79.2897 35.7405 78.3694 37.4576 72.2138C38.5175 68.1401 38.9346 63.9232 38.6935 59.7184C38.339 51.7068 32.8482 46.722 24.916 46.3232C22.8493 46.2209 21.9528 46.9981 21.9781 49.0687C22.0338 52.7958 22.0034 56.5281 22.0034 60.2501V60.2603ZM22.0034 26.5576C22.0034 30.6477 22.0034 34.7379 22.0034 38.7871C22.0034 40.1624 22.1655 41.277 23.9029 41.507C28.2793 42.0899 33.1521 39.8557 35.2188 35.8422C37.6492 31.2121 38.1681 25.8 36.6623 20.7854C35.0009 14.9059 31.0905 11.8025 25.1692 11.5826C22.9354 11.4957 21.897 12.2063 21.9629 14.5991C22.0743 18.5767 21.9933 22.5697 21.9933 26.5576H22.0034Z" fill="black"/>
<path d="M407.624 29.1803C406.695 28.9976 405.753 28.895 404.807 28.8736C400.531 29.201 396.235 28.5672 392.23 27.0177C390.645 26.3837 390.493 25.4327 390.549 24.083C390.609 22.5799 391.384 21.9714 392.823 22.0072C405.365 22.3447 417.916 22.5185 430.443 23.1372C433.315 23.2854 436.4 24.6709 438.866 26.2508C445.988 30.888 446.302 42.4477 439.631 48.1228C437.982 49.4355 436.209 50.5812 434.338 51.5431C432.864 52.3612 432.418 53.2354 433.295 54.7897C436.658 60.7715 439.814 66.8709 443.38 72.7249C444.605 74.7393 446.621 76.4061 448.587 77.7814C450.36 79.0238 450.106 80.5882 449.732 82.03C449.595 82.577 448.004 83.0116 447.067 83.0525C443.015 83.1599 438.963 83.0167 434.91 83.1343C432.783 83.1957 431.578 82.4492 430.605 80.4553C426.776 72.6159 422.818 64.8395 418.732 57.1262C418.097 55.9995 417.046 55.1723 415.809 54.8255C413.14 54.3142 412.522 54.9788 412.527 57.7448C412.527 63.016 412.527 68.282 412.633 73.5481C412.694 76.8918 413.342 77.7098 416.66 78.2722C418.57 78.5994 418.58 79.806 418.59 81.2171C418.59 82.8992 417.577 83.119 416.255 83.1139C408.488 83.1139 400.733 83.1139 392.99 83.1139C391.719 83.1139 390.609 82.9707 390.523 81.2887C390.437 79.6066 390.782 78.5943 392.712 78.2773C396.151 77.7098 397.159 76.5492 397.225 72.9396C397.412 62.3206 397.554 51.7016 397.524 41.0877C397.524 38.4036 398.324 36.6295 400.563 35.2031C403.095 33.613 405.4 31.6907 407.806 29.9115C407.781 29.6456 407.695 29.4104 407.624 29.1803ZM412.527 38.4956C412.527 41.2922 412.649 44.1195 412.492 46.8804C412.345 49.3958 413.408 50.3314 415.748 49.948C418.089 49.5645 420.424 49.3549 422.627 48.634C427.186 47.1514 429.85 42.3403 429.526 36.8442C429.222 31.7673 426.543 28.4799 421.563 27.442C419.441 26.9972 417.238 26.9307 415.07 26.7416C413.196 26.5677 412.507 27.5698 412.537 29.3337C412.547 32.3962 412.527 35.4433 412.527 38.4956Z" fill="black"/>
<path d="M359.63 0.876587C360.893 4.96672 362.156 9.05686 363.419 13.147C365.06 18.4948 366.782 23.8172 368.266 29.2059C368.869 31.3839 370.095 31.9974 372.111 31.9872C380.038 31.9565 387.965 31.9872 395.893 31.9872H398.572C398.648 32.1968 398.724 32.4115 398.795 32.6211C397.235 33.7971 395.695 35.0037 394.11 36.1489C388.426 40.239 382.748 44.3701 377.019 48.4193C375.262 49.6566 374.745 50.9092 375.464 53.1383C378.407 62.2439 381.127 71.4263 383.918 80.5882C383.961 81.02 383.961 81.455 383.918 81.8868C382.966 81.2119 382.252 80.7672 381.608 80.2406C374.887 74.7086 368.13 69.2177 361.494 63.5784C359.782 62.1213 358.592 62.198 356.935 63.5784C349.981 69.2023 342.935 74.7547 335.909 80.3121C335.136 80.9692 334.205 81.4084 333.21 81.5852C333.625 80.0514 333.995 78.4613 334.471 76.9224C337.003 68.6604 339.658 60.4341 342.043 52.1311C342.302 51.2211 341.456 49.5237 340.61 48.8232C334.486 43.7617 328.23 38.8688 322.025 33.9147C321.453 33.4647 320.906 32.9842 319.928 32.161C321.098 32.0537 321.722 31.9463 322.35 31.9463C330.358 31.9463 338.371 31.9463 346.379 32.0128C348.547 32.0128 349.707 31.297 350.351 29.0679C352.954 20.0287 355.745 11.0508 358.455 2.05253C358.592 1.67214 358.751 1.29999 358.931 0.937936L359.63 0.876587ZM358.688 51.5585C361.889 51.5585 365.096 51.5585 368.312 51.5585C370.075 51.5585 370.966 50.8223 369.887 49.0022C366.64 43.5469 363.399 38.0815 360.076 32.6723C358.845 30.6733 357.771 30.7244 356.581 32.7797C353.542 38.0593 350.529 43.3612 347.544 48.6852C346.349 50.8274 346.785 51.5022 349.343 51.5431C352.448 51.5943 355.568 51.5585 358.688 51.5585Z" fill="#1361A2"/>
<path d="M230.389 74.5195C230.389 72.8221 230.389 71.1196 230.389 69.4068C230.389 67.9548 230.698 66.9272 232.456 66.8965C234.122 66.8658 235.374 66.9937 235.667 69.1461C235.903 70.9982 236.441 72.7981 237.258 74.4735C239.512 78.9368 246.401 81.6312 251.506 80.1997C256.942 78.7068 259.282 75.5983 259.935 69.867C260.68 63.4148 258.203 58.6191 253.219 54.9073C248.66 51.533 243.858 48.5165 239.542 44.8711C232.886 39.2472 229.665 32.0281 230.531 23.0145C231.301 14.9927 237.151 7.82474 244.886 5.82057C251.066 4.21519 257.134 4.79802 263.121 6.4443C269.747 8.2593 269.706 8.40758 269.706 15.3404C269.706 16.3629 269.706 17.3854 269.706 18.408C269.706 20.0185 269.99 21.6852 267.467 21.8028C265.304 21.8999 264.646 21.1177 264.312 18.9857C263.06 11.0202 255.928 7.27253 248.609 10.6367C245.879 11.8893 244.496 14.3025 243.848 17.1707C242.485 23.2138 244.456 28.1016 249.202 31.8031C253.062 34.8145 257.175 37.4936 261.08 40.4538C265.872 44.0787 270.005 48.3682 271.99 54.1864C276.397 67.1266 270.628 81.12 255.969 84.3001C249.202 85.7674 242.521 84.9954 235.905 83.5178C230.334 82.2754 230.379 82.1425 230.379 76.3038L230.389 74.5195Z" fill="black"/>
<path d="M155.433 49.0022C155.433 43.6492 155.474 38.2963 155.433 32.9484C155.393 28.8583 155.038 28.347 151.138 27.2478C149.218 26.7365 148.605 25.5504 149.076 23.8888C149.284 23.1423 150.277 22.0993 150.935 22.084C156.664 21.9408 162.403 21.9306 168.132 22.084C168.866 22.084 170.102 23.2446 170.158 23.9552C170.244 24.8909 169.505 26.7008 168.942 26.7723C163.472 27.4983 163.33 31.3737 163.305 35.5968C163.257 44.7689 163.104 53.9393 162.844 63.1081C162.697 67.8168 161.613 72.3109 159.06 76.401C157.019 79.8738 153.768 82.4533 149.942 83.6354C142.821 85.8646 135.729 85.5936 128.942 82.5311C123.314 79.9747 120.123 75.1586 119.019 69.1973C118.254 64.777 117.827 60.3038 117.742 55.8174C117.509 48.266 117.651 40.6992 117.555 33.1376C117.499 28.848 116.75 27.8562 112.667 27.0331C110.813 26.6599 110.372 25.76 110.443 24.0626C110.524 22.1249 111.684 21.9562 113.179 21.9613C121.107 21.9817 129.033 21.9817 136.955 21.9613C138.272 21.9613 139.331 22.13 139.402 23.7763C139.467 25.2641 139.569 26.5423 137.538 27.028C133.612 27.9738 133.014 28.6026 133.014 32.565C133.014 44.7945 133.166 57.0189 133.283 69.2484C133.302 70.0124 133.385 70.7735 133.531 71.5235C134.635 77.9297 137.821 81.1098 143.312 81.3143C148.377 81.5034 152.83 78.0882 153.99 72.2751C154.942 67.4845 155.215 62.561 155.585 57.658C155.803 54.7847 155.626 51.8807 155.626 48.9664L155.433 49.0022Z" fill="black"/>
<path d="M199.598 83.0781C192.597 83.0781 185.597 83.0781 178.597 83.0781C177.209 83.0781 175.593 83.4002 175.441 81.1659C175.304 79.2078 176.211 78.5176 178.05 78.2262C180.972 77.7609 182.183 76.3498 182.198 73.3691C182.256 59.599 182.256 45.8306 182.198 32.0638C182.198 28.894 181.332 28.1168 178.146 27.1147C177.199 26.8182 175.958 26.2661 175.613 25.4838C174.717 23.5155 175.867 22.0328 178.095 22.0174C183.328 21.9765 188.555 22.0174 193.798 22.0174C202.231 22.0174 210.665 22.0788 219.099 21.9714C221.383 21.9714 222.356 22.6463 222.239 25.039C222.113 27.5954 222.179 30.1517 222.239 32.708C222.265 34.3032 221.865 35.3206 219.995 35.295C218.299 35.295 217.62 34.6048 217.539 32.8665C217.321 28.1833 216.303 27.1506 211.587 26.9461C207.798 26.7773 203.989 26.8899 200.205 26.7927C198.417 26.7518 197.521 27.4369 197.536 29.2979C197.566 34.8264 197.576 40.3515 197.566 45.8732C197.566 47.5552 198.275 48.4295 199.993 48.3579C202.773 48.2659 205.564 48.2199 208.335 48.1074C210.189 48.0358 211.374 47.1616 211.46 45.1676C211.547 43.2555 212.661 42.7953 214.353 42.8669C216.257 42.9538 216.171 44.2729 216.176 45.5715C216.176 48.9715 216.176 52.3714 216.176 55.7713C216.176 57.0852 215.903 58.1333 214.277 58.1947C212.838 58.2509 211.673 57.8981 211.557 56.2621C211.354 53.4859 209.576 52.7395 207.246 52.6832C204.8 52.6065 202.353 52.627 199.907 52.5554C198.326 52.5094 197.551 53.2099 197.571 54.8203C197.632 61.1089 197.571 67.3975 197.784 73.6861C197.891 76.9633 199.228 78.2517 202.581 78.3949C206.704 78.5636 210.842 78.4562 214.971 78.4256C217.088 78.4256 218.248 77.2854 218.385 75.1381C218.483 74.2094 218.519 73.275 218.491 72.3415C218.329 70.2964 219.134 69.4221 221.247 69.4477C223.273 69.4477 223.891 70.414 223.84 72.2852C223.769 74.9183 223.734 77.5615 223.84 80.1894C223.931 82.3776 223.106 83.2161 220.897 83.1905C213.806 83.0985 206.714 83.1548 199.623 83.1548L199.598 83.0781Z" fill="black"/>
<path d="M84.1091 83.0833H65.6208C64.3494 83.0833 63.0071 83.2366 62.8906 81.3143C62.7792 79.5095 63.2604 78.4358 65.2916 78.2467C67.9002 78.0064 69.3438 76.3806 69.6477 73.7578C69.7781 72.7402 69.8525 71.7161 69.8706 70.6902C69.8706 58.5374 69.9466 46.3897 69.8301 34.242C69.7794 28.9555 68.893 27.5085 64.4406 26.8643C62.683 26.6087 62.5867 25.1107 62.9767 23.9194C63.2351 23.1321 64.2988 22.0687 65.0029 22.0534C73.2593 21.9256 81.5258 21.9869 89.7873 21.9664C91.2765 21.9664 91.9097 22.6668 91.9856 24.1188C92.0616 25.5708 91.8185 26.5014 90.1976 26.9564C85.4666 28.2806 84.9196 28.9657 84.8993 33.8432C84.8487 45.9909 84.8487 58.1403 84.8993 70.2914C84.9348 75.8386 86.2011 77.0094 91.6311 77.0912C91.8843 77.0912 92.1376 77.0912 92.3909 77.0912C97.4562 76.8765 99.7862 78.2774 99.4823 70.4959C99.3911 68.2003 100.86 68.185 102.491 68.1594C104.223 68.1287 105.454 68.4202 105.393 70.6237C105.292 73.9316 105.297 77.2702 105.393 80.5627C105.444 82.4953 104.563 83.0628 102.795 83.0475C96.5545 82.9964 90.3141 83.0475 84.0787 83.0475L84.1091 83.0833Z" fill="black"/>
<path d="M302.22 21.997C309.311 21.997 316.403 22.1197 323.454 21.9407C326.493 21.8589 326.295 23.6382 326.382 25.6986C326.478 27.9022 325.905 29.1292 323.434 28.8633C319.847 28.4799 316.246 28.2191 312.655 27.8817C310.365 27.6618 309.544 28.6434 309.56 30.9493C309.641 44.6257 309.605 58.297 309.62 71.9734C309.61 72.9075 309.656 73.8414 309.757 74.77C310.173 78.1086 311.049 79.0033 314.377 79.3714C315.638 79.5043 316.763 79.5861 316.732 81.2938C316.702 83.0014 315.486 83.0525 314.265 83.0525C306.161 83.0525 298.082 83.0985 289.992 82.986C289.212 82.986 287.966 82.1169 287.769 81.4062C287.318 79.8724 288.498 79.5094 289.861 79.3612C293.553 78.9573 294.602 78.0932 294.637 74.4377C294.794 59.662 294.774 44.8813 294.83 30.1057C294.83 28.4646 293.994 27.8255 292.459 27.8612C291.618 27.8612 290.773 27.8612 289.927 27.8612C283.651 27.9431 283.018 28.5208 282.698 34.7429C282.617 36.2767 282.344 37.3299 280.439 37.2992C278.535 37.2685 277.907 36.4863 277.907 34.6867C277.968 31.4606 278.013 28.2293 277.907 25.0083C277.831 22.7485 278.58 21.8487 280.946 21.8947C288.058 22.0788 295.139 21.9919 302.22 21.997Z" fill="black"/>
</g>
<defs>
<clipPath id="clip0_70_196">
<rect width="450" height="84.2466" fill="white" transform="translate(0 0.876709)"/>
</clipPath>
</defs>
</svg>
