<svg width="250" height="48" viewBox="0 0 250 48" fill="none" xmlns="http://www.w3.org/2000/svg">
<g clip-path="url(#clip0_48_52)">
<path d="M3.92269 25.1705C3.92269 20.2122 3.94802 15.2566 3.92269 10.2983C3.90299 7.83879 3.35987 7.20284 0.91728 6.7357C-0.154872 6.53028 -0.0366827 5.77611 0.0899494 5.15139C0.168743 4.76587 0.706233 4.18053 1.03829 4.18053C7.64005 4.16083 14.2643 4.03139 20.8464 4.32968C24.4568 4.4929 27.4875 6.29952 28.5878 10.0309C29.7134 13.844 29.2266 17.5191 26.2296 20.4092C24.9408 21.6558 23.2805 22.5169 21.7975 23.5637C21.4767 23.7888 21.1897 24.0674 20.8886 24.3207C21.2403 24.5739 21.5555 24.9398 21.9495 25.0664C25.0449 26.0626 27.9012 27.4696 29.5277 30.4553C32.6006 36.0834 30.9347 45.426 20.7535 45.9325C14.2587 46.2449 7.73572 46.0339 1.22401 46.062C0.548639 46.062 -9.80318e-05 45.9663 0.0392986 45.0911C0.0730672 44.3539 -0.0901455 43.6279 1.04392 43.4506C3.25013 43.1044 3.90862 42.3081 3.92269 40.054C3.95364 35.0872 3.9255 30.1176 3.92269 25.1705ZM12.2241 33.5001H12.3648C12.3648 35.6922 12.3648 37.8844 12.3648 40.0765C12.3648 40.5408 12.3648 41.0727 12.5815 41.447C12.9698 42.1252 13.4257 43.1072 14.0195 43.2648C16.7238 43.974 19.8558 43.4675 20.8098 40.0793C21.3986 37.8372 21.6303 35.5161 21.4964 33.2018C21.2994 28.7922 18.249 26.0485 13.8422 25.829C12.6941 25.7727 12.196 26.2005 12.2101 27.3402C12.241 29.3916 12.2241 31.4458 12.2241 33.4945V33.5001ZM12.2241 14.9499C12.2241 17.2011 12.2241 19.4524 12.2241 21.6811C12.2241 22.4381 12.3142 23.0515 13.2794 23.1782C15.7107 23.499 18.4178 22.2692 19.566 20.0602C20.9162 17.5118 21.2045 14.5329 20.368 11.7729C19.445 8.5367 17.2725 6.82858 13.9829 6.70757C12.7419 6.65973 12.165 7.05086 12.2016 8.36783C12.2635 10.5572 12.2185 12.7549 12.2185 14.9499H12.2241Z" fill="white"/>
<path d="M226.458 16.3935C225.942 16.293 225.418 16.2365 224.893 16.2247C222.517 16.4049 220.131 16.056 217.906 15.2032C217.025 14.8542 216.941 14.3308 216.971 13.5879C217.005 12.7606 217.436 12.4257 218.235 12.4454C225.203 12.6311 232.176 12.7268 239.135 13.0673C240.73 13.1489 242.444 13.9115 243.815 14.7811C247.771 17.3334 247.946 23.696 244.24 26.8196C243.324 27.5421 242.339 28.1727 241.299 28.7022C240.48 29.1524 240.232 29.6336 240.719 30.4891C242.588 33.7815 244.341 37.1387 246.322 40.3608C247.003 41.4695 248.123 42.3869 249.215 43.1439C250.2 43.8277 250.059 44.6888 249.851 45.4823C249.775 45.7834 248.891 46.0226 248.371 46.0451C246.119 46.1042 243.868 46.0254 241.617 46.0902C240.435 46.1239 239.765 45.7131 239.225 44.6156C237.098 40.3007 234.899 36.0206 232.629 31.7751C232.276 31.155 231.692 30.6997 231.005 30.5088C229.522 30.2274 229.179 30.5932 229.182 32.1156C229.182 35.0169 229.182 37.9154 229.241 40.8138C229.274 42.6542 229.635 43.1045 231.478 43.414C232.539 43.5941 232.544 44.2582 232.55 45.0349C232.55 45.9607 231.987 46.0817 231.253 46.0789C226.938 46.0789 222.63 46.0789 218.328 46.0789C217.621 46.0789 217.005 46.0001 216.957 45.0743C216.91 44.1485 217.101 43.5913 218.173 43.4168C220.084 43.1045 220.644 42.4657 220.68 40.4789C220.784 34.6342 220.863 28.7894 220.846 22.9474C220.846 21.4701 221.291 20.4936 222.535 19.7085C223.942 18.8333 225.222 17.7752 226.559 16.7959C226.545 16.6496 226.497 16.5201 226.458 16.3935ZM229.182 21.5207C229.182 23.06 229.249 24.6162 229.162 26.1357C229.08 27.5203 229.671 28.0352 230.971 27.8242C232.271 27.6131 233.569 27.4978 234.793 27.101C237.325 26.2849 238.806 23.6369 238.626 20.6118C238.457 17.8174 236.968 16.008 234.202 15.4367C233.023 15.1919 231.799 15.1553 230.594 15.0512C229.553 14.9555 229.17 15.5071 229.187 16.4779C229.193 18.1636 229.182 19.8407 229.182 21.5207Z" fill="white"/>
<path d="M199.794 0.814941C200.496 3.06618 201.198 5.31742 201.899 7.56866C202.811 10.5121 203.768 13.4416 204.592 16.4076C204.927 17.6064 205.608 17.944 206.728 17.9384C211.132 17.9215 215.536 17.9384 219.94 17.9384H221.429C221.471 18.0538 221.513 18.172 221.553 18.2874C220.686 18.9346 219.83 19.5987 218.95 20.2291C215.792 22.4803 212.638 24.754 209.455 26.9828C208.479 27.6638 208.192 28.3532 208.591 29.5801C210.226 34.5919 211.737 39.646 213.288 44.6888C213.312 44.9264 213.312 45.1658 213.288 45.4035C212.759 45.0321 212.362 44.7872 212.005 44.4974C208.27 41.4526 204.516 38.4303 200.83 35.3264C199.879 34.5244 199.218 34.5666 198.297 35.3264C194.434 38.4219 190.519 41.4779 186.616 44.5368C186.187 44.8985 185.669 45.1402 185.116 45.2375C185.347 44.3933 185.553 43.5181 185.817 42.6711C187.224 38.1236 188.699 33.5958 190.024 29.0258C190.168 28.5249 189.698 27.5906 189.228 27.2051C185.825 24.4192 182.35 21.7261 178.903 18.9993C178.585 18.7517 178.281 18.4872 177.738 18.0341C178.388 17.975 178.734 17.9159 179.083 17.9159C183.532 17.9159 187.984 17.9159 192.433 17.9525C193.637 17.9525 194.282 17.5585 194.639 16.3316C196.086 11.3564 197.636 6.41491 199.142 1.46219C199.218 1.25282 199.306 1.04798 199.406 0.848709L199.794 0.814941ZM199.271 28.7106C201.049 28.7106 202.831 28.7106 204.618 28.7106C205.597 28.7106 206.092 28.3054 205.493 27.3036C203.689 24.301 201.888 21.2928 200.042 18.3155C199.358 17.2152 198.762 17.2434 198.1 18.3746C196.412 21.2806 194.739 24.1987 193.08 27.1291C192.416 28.3082 192.658 28.6796 194.079 28.7021C195.804 28.7303 197.538 28.7106 199.271 28.7106Z" fill="#1361A2"/>
<path d="M127.994 41.3485C127.994 40.4143 127.994 39.4772 127.994 38.5345C127.994 37.7353 128.166 37.1696 129.142 37.1528C130.068 37.1359 130.763 37.2062 130.926 38.391C131.057 39.4103 131.356 40.4011 131.81 41.3232C133.062 43.7798 136.889 45.2629 139.726 44.4749C142.745 43.6532 144.045 41.9423 144.408 38.7877C144.822 35.2364 143.446 32.5968 140.677 30.5538C138.144 28.6966 135.477 27.0363 133.079 25.0299C129.381 21.9344 127.592 17.961 128.073 12.9998C128.501 8.58457 131.751 4.63927 136.048 3.53617C139.481 2.65255 142.852 2.97335 146.178 3.87947C149.859 4.87846 149.837 4.96007 149.837 8.77592C149.837 9.33873 149.837 9.90154 149.837 10.4643C149.837 11.3508 149.994 12.2682 148.593 12.3329C147.391 12.3863 147.025 11.9558 146.84 10.7823C146.145 6.39805 142.182 4.33533 138.116 6.18698C136.599 6.87642 135.831 8.20466 135.471 9.78334C134.714 13.1095 135.809 15.7998 138.445 17.8371C140.59 19.4946 142.875 20.9692 145.044 22.5985C147.706 24.5937 150.003 26.9547 151.106 30.157C153.554 37.2794 150.349 44.9815 142.205 46.7318C138.445 47.5394 134.734 47.1145 131.059 46.3012C127.963 45.6174 127.988 45.5443 127.988 42.3306L127.994 41.3485Z" fill="white"/>
<path d="M86.3518 27.3036C86.3518 24.3573 86.3743 21.411 86.3518 18.4675C86.3292 16.2163 86.1323 15.9348 83.9654 15.3298C82.8989 15.0484 82.5584 14.3956 82.8201 13.481C82.9355 13.0702 83.4871 12.4961 83.8529 12.4876C87.0356 12.4088 90.2239 12.4032 93.4066 12.4876C93.8146 12.4876 94.5012 13.1264 94.5322 13.5176C94.58 14.0326 94.1692 15.0287 93.8568 15.0681C90.8177 15.4677 90.7389 17.6008 90.7248 19.9252C90.6985 24.9736 90.6132 30.021 90.4687 35.0676C90.3871 37.6593 89.7849 40.1328 88.3666 42.3841C87.2326 44.2955 85.4265 45.7153 83.3013 46.366C79.3448 47.5929 75.4051 47.4437 71.6343 45.7581C68.5079 44.3511 66.735 41.7003 66.1216 38.4191C65.6965 35.9862 65.4594 33.5241 65.4124 31.0547C65.283 26.8984 65.3618 22.7336 65.3083 18.5716C65.2774 16.2106 64.8609 15.6647 62.5928 15.2117C61.5628 15.0062 61.318 14.5109 61.3574 13.5767C61.4024 12.5101 62.0468 12.4173 62.877 12.4201C67.2819 12.4314 71.6849 12.4314 76.0861 12.4201C76.8178 12.4201 77.4059 12.513 77.4453 13.4191C77.4819 14.238 77.5382 14.9415 76.4097 15.2088C74.2288 15.7294 73.8968 16.0755 73.8968 18.2564C73.8968 24.9876 73.9812 31.716 74.0459 38.4472C74.0569 38.8678 74.103 39.2867 74.1838 39.6995C74.7973 43.2255 76.5673 44.9758 79.6177 45.0884C82.4318 45.1925 84.9053 43.3127 85.5498 40.1132C86.0788 37.4764 86.2308 34.7665 86.4362 32.0678C86.5572 30.4863 86.4587 28.8879 86.4587 27.2839L86.3518 27.3036Z" fill="white"/>
<path d="M110.888 46.0593C106.998 46.0593 103.109 46.0593 99.2205 46.0593C98.4494 46.0593 97.5517 46.2366 97.4673 45.0068C97.3913 43.929 97.8951 43.5492 98.9166 43.3888C100.54 43.1327 101.213 42.356 101.221 40.7154C101.253 33.1362 101.253 25.558 101.221 17.9807C101.221 16.236 100.74 15.8082 98.97 15.2567C98.4438 15.0935 97.7544 14.7896 97.563 14.359C97.0649 13.2756 97.7037 12.4595 98.9419 12.4511C101.849 12.4286 104.753 12.4511 107.665 12.4511C112.351 12.4511 117.036 12.4849 121.722 12.4258C122.991 12.4258 123.531 12.7972 123.466 14.1142C123.396 15.5212 123.433 16.9283 123.466 18.3353C123.48 19.2133 123.258 19.7732 122.22 19.7592C121.277 19.7592 120.9 19.3793 120.855 18.4225C120.734 15.8448 120.168 15.2764 117.548 15.1638C115.443 15.071 113.327 15.1329 111.225 15.0794C110.232 15.0569 109.734 15.434 109.742 16.4583C109.759 19.5012 109.765 22.5423 109.759 25.5815C109.759 26.5073 110.153 26.9885 111.107 26.9491C112.652 26.8984 114.202 26.8731 115.742 26.8112C116.772 26.7718 117.43 26.2906 117.478 25.1931C117.526 24.1407 118.145 23.8874 119.085 23.9268C120.143 23.9746 120.095 24.7007 120.098 25.4154C120.098 27.2868 120.098 29.1581 120.098 31.0294C120.098 31.7527 119.946 32.3295 119.043 32.3633C118.243 32.3943 117.596 32.2001 117.531 31.2996C117.419 29.7716 116.431 29.3607 115.137 29.3297C113.778 29.2875 112.418 29.2988 111.059 29.2594C110.181 29.2341 109.751 29.6196 109.762 30.506C109.796 33.9673 109.762 37.4286 109.88 40.8899C109.939 42.6937 110.682 43.4028 112.545 43.4816C114.836 43.5745 117.135 43.5154 119.428 43.4985C120.604 43.4985 121.249 42.871 121.325 41.6891C121.38 41.1779 121.399 40.6636 121.384 40.1498C121.294 39.0242 121.741 38.543 122.915 38.557C124.04 38.557 124.384 39.0889 124.356 40.1188C124.316 41.5681 124.296 43.0229 124.356 44.4693C124.406 45.6737 123.948 46.1353 122.721 46.1212C118.781 46.0705 114.841 46.1015 110.902 46.1015L110.888 46.0593Z" fill="white"/>
<path d="M46.7272 46.0621H36.456C35.7496 46.0621 35.0039 46.1465 34.9392 45.0884C34.8773 44.0951 35.1446 43.5041 36.2731 43.4C37.7223 43.2677 38.5243 42.3729 38.6931 40.9293C38.7656 40.3692 38.8069 39.8055 38.817 39.2409C38.817 32.5519 38.8592 25.8657 38.7944 19.1795C38.7663 16.2698 38.2739 15.4734 35.8003 15.1188C34.8238 14.9781 34.7704 14.1536 34.987 13.4979C35.1306 13.0646 35.7215 12.4793 36.1127 12.4708C40.6996 12.4005 45.2921 12.4342 49.8818 12.423C50.7091 12.423 51.0609 12.8085 51.1031 13.6077C51.1453 14.4069 51.0102 14.919 50.1097 15.1695C47.4814 15.8983 47.1775 16.2754 47.1662 18.96C47.1381 25.6462 47.1381 32.3333 47.1662 39.0214C47.1859 42.0746 47.8895 42.719 50.9061 42.764C51.0468 42.764 51.1875 42.764 51.3282 42.764C54.1423 42.6458 55.4367 43.4169 55.2679 39.1339C55.2172 37.8704 56.0333 37.862 56.9394 37.8479C57.9018 37.831 58.5856 37.9914 58.5519 39.2043C58.4956 41.025 58.4984 42.8625 58.5519 44.6748C58.58 45.7385 58.0904 46.0508 57.1083 46.0424C53.6414 46.0142 50.1745 46.0424 46.7104 46.0424L46.7272 46.0621Z" fill="white"/>
<path d="M167.9 12.4398C171.84 12.4398 175.779 12.5073 179.696 12.4088C181.385 12.3638 181.275 13.3431 181.323 14.4772C181.376 15.69 181.058 16.3654 179.685 16.219C177.693 16.008 175.692 15.8645 173.697 15.6787C172.425 15.5577 171.969 16.098 171.978 17.3672C172.023 24.8947 172.003 32.4195 172.011 39.9471C172.006 40.4613 172.031 40.9753 172.087 41.4864C172.318 43.324 172.805 43.8164 174.654 44.019C175.354 44.0922 175.979 44.1372 175.962 45.0771C175.945 46.017 175.27 46.0451 174.592 46.0451C170.089 46.0451 165.601 46.0705 161.107 46.0085C160.674 46.0085 159.981 45.5302 159.872 45.139C159.621 44.2948 160.277 44.095 161.034 44.0134C163.085 43.7911 163.668 43.3155 163.687 41.3035C163.775 33.1709 163.763 25.0355 163.794 16.9029C163.794 15.9996 163.33 15.6478 162.477 15.6675C162.01 15.6675 161.54 15.6675 161.07 15.6675C157.584 15.7125 157.232 16.0305 157.055 19.4552C157.01 20.2994 156.858 20.8791 155.8 20.8622C154.742 20.8453 154.393 20.4148 154.393 19.4242C154.426 17.6486 154.452 15.8701 154.393 14.0972C154.35 12.8534 154.767 12.3582 156.081 12.3835C160.032 12.4848 163.966 12.437 167.9 12.4398Z" fill="white"/>
</g>
<defs>
<clipPath id="clip0_48_52">
<rect width="250" height="46.3699" fill="white" transform="translate(0 0.815063)"/>
</clipPath>
</defs>
</svg>
